<svg xmlns="http://www.w3.org/2000/svg" xmlns:xlink="http://www.w3.org/1999/xlink" data-name="Layer 1" viewBox="0 0 128 128"><defs><clipPath id="b"><rect width="128" height="128" y="-163" fill="none" rx="24" ry="24"/></clipPath><clipPath id="c"><path fill="none" d="M104 0H24A24.07 24.07 0 0 0 0 24v80a24.07 24.07 0 0 0 24 24h80a24.07 24.07 0 0 0 24-24V24a24.07 24.07 0 0 0-24-24Zm16 104a16 16 0 0 1-16 16H24a16 16 0 0 1-16-16V24A16 16 0 0 1 24 8h80a16 16 0 0 1 16 16Z"/></clipPath><clipPath id="e"><path fill="none" d="M64 48a16 16 0 1 0 16 16 16 16 0 0 0-16-16Zm0 24a8 8 0 1 1 8-8 8 8 0 0 1-8 8Z"/></clipPath><clipPath id="f"><path fill="none" d="M84 100H44a16 16 0 0 1-16-16V44a16 16 0 0 1 16-16h40a16 16 0 0 1 16 16v40a16 16 0 0 1-16 16ZM44 36a8 8 0 0 0-8 8v40a8 8 0 0 0 8 8h40a8 8 0 0 0 8-8V44a8 8 0 0 0-8-8Z"/></clipPath><clipPath id="g"><circle cx="82" cy="46" r="5" fill="none"/></clipPath><radialGradient id="a" cx="27.5" cy="-41.5" r="148.5" gradientUnits="userSpaceOnUse"><stop offset="0" stop-color="#ffd676"/><stop offset=".25" stop-color="#f2a454"/><stop offset=".38" stop-color="#f05c3c"/><stop offset=".7" stop-color="#c22f86"/><stop offset=".96" stop-color="#6666ad"/><stop offset=".99" stop-color="#5c6cb2"/></radialGradient><radialGradient id="d" cx="27.5" cy="121.5" r="148.5" xlink:href="#a"/><radialGradient id="h" cx="13.87" cy="140.38" r="185.63" xlink:href="#a"/></defs><g clip-path="url(#b)"><circle cx="27.5" cy="-41.5" r="148.5" fill="url(#a)"/></g><g clip-path="url(#c)"><circle cx="27.5" cy="121.5" r="148.5" fill="url(#d)"/></g><g clip-path="url(#e)"><circle cx="27.5" cy="121.5" r="148.5" fill="url(#d)"/></g><g clip-path="url(#f)"><circle cx="27.5" cy="121.5" r="148.5" fill="url(#d)"/></g><g clip-path="url(#g)"><circle cx="13.87" cy="140.38" r="185.63" fill="url(#h)"/></g></svg>